<svg xmlns="http://www.w3.org/2000/svg" viewBox="0 0 32 32" width="32" height="32"><g transform="translate(-0.0401 -0.401)"><path fill="#24C55B" d="M32.0802 16.3609c0 8.94235-7.13785 16.1604-16.0802 16.1604-8.94235 0-16-7.09774-16-16.0802 0.0401-8.82206 7.25815-16.4411 15.9599-16.4411 8.58145 0 16.1203 7.33835 16.1203 16.3609z"/></g><g transform="translate(5.1439 8.7018)"><path fill="#121010" d="M17.71328 13.23308c-2.48622-1.52381-5.45363-2.56642-9.22306-2.56641-1.60401 0-3.44862 0.1604-5.25313 0.6817l-0.3208 0.0401c-0.5213 0.1203-0.96241 0.6015-0.84211 1.20301 0.1203 0.7218 0.8421 1.04261 1.44361 0.7619l0.5213-0.1604c4.45113-1.04261 8.34085-0.6817 12.31078 1.52381l0.2807 0.1604c0.6817 0.6015 1.72431 0.0802 1.68421-0.8421 0-0.3609-0.2406-0.6817-0.6015-0.80201z m1.80451-4.81203c-2.72682-1.68421-6.37594-3.00752-10.98747-3.00752-1.88471 0-3.84962 0.2005-6.05514 0.88221-0.0802 0.0401-0.3208 0.0802-0.4812 0.1203-0.6015 0.2005-0.92231 0.802-0.7619 1.44361 0.2005 0.6817 0.96241 1.16291 1.80451 0.802l0.2406-0.0802c1.32331-0.401 3.08772-0.7218 5.21303-0.7218 3.48872 0 6.81704 0.802 9.58396 2.36591l0.2406 0.1604c1.04261 0.7218 2.24562-0.1604 1.96492-1.203-0.0802-0.3609-0.3609-0.6416-0.76191-0.76191z m2.04511-5.41353l-0.2406-0.1203c-2.48622-1.32331-6.41604-2.88722-12.11028-2.88722-1.88471 0-4.37093 0.0802-7.53884 0.96241l-0.5213 0.1203c-0.76191 0.1203-1.28321 0.84211-1.12281 1.64411 0.2005 0.8421 1.08271 1.52381 2.08521 1.1228 0.7218-0.3208 3.12782-1.04261 7.01754-1.0426 3.80952 0 7.41855 0.80201 10.74687 2.52631l0.3208 0.20051c0.84211 0.4411 1.88471 0.0802 2.12532-0.80201 0.2005-0.802-0.1604-1.48371-0.76191-1.72431z"/></g></svg>
